<?xml version="1.0" encoding="UTF-8" standalone="no"?> <svg xmlns="http://www.w3.org/2000/svg" viewBox="0 0 64 64"><g id="_05-Save_Water" data-name="05-Save Water"><path id="path8548-9-5-2" d="M54.00161,28.582q-3.8867,3.88673-7.77342,7.77343A5.05817,5.05817,0,0,0,41.99966,34l-21.00193.002c-4.33335.00041-6.70319,2.2871-8.70316,4.28711l-2,2.002L23.70671,53.711c1-1,1.62629-1.71289,3.29295-1.71289h17a9.93941,9.93941,0,0,0,8.34179-4.64258c2.29066-3.31728,6.57974-9.5241,8.47461-12.21094a6.08645,6.08645,0,0,0,1.17381-3.26172,4.41476,4.41476,0,0,0-1.28514-3.30078,4.74351,4.74351,0,0,0-6.7031-.00005Z" fill="#fdd5a6"/><path d="M61.99,31.88a6.01333,6.01333,0,0,1-1.17,3.26c-1.9,2.69-6.19,8.9-8.48,12.22A9.93708,9.93708,0,0,1,44,52H40a9.93708,9.93708,0,0,0,8.34-4.64c2.29-3.32,6.58-9.53,8.48-12.22a6.01333,6.01333,0,0,0,1.17-3.26,4.42061,4.42061,0,0,0-1.29-3.3,4.71422,4.71422,0,0,0-1.34-.94,4.61574,4.61574,0,0,1,1.99-.44,4.71447,4.71447,0,0,1,3.35,1.38A4.42061,4.42061,0,0,1,61.99,31.88Z" fill="#fdca99"/><path id="path8594-9-6-5" d="M8.98791,38.002a1.0001,1.0001,0,0,0-.69531.28709l-6,6.002A1.00009,1.00009,0,0,0,2.289,45.70536l.00361.00362,16.004,15.99609a1.0001,1.0001,0,0,0,1.41014,0l6-6.002a1.00009,1.00009,0,0,0,0-1.41016L9.7028,38.28906a1.00011,1.00011,0,0,0-.71486-.2871Z" fill="#68b1fc"/><path id="path8596-8-8-0" d="M33.98241,2.0005a1,1,0,0,0-.76033.36907,76.99792,76.99792,0,0,0-4.562,6.341c-2.28513,3.55467-4.658,7.78692-4.658,11.28692a9.99877,9.99877,0,1,0,19.99754,0c0-3.5-2.37282-7.73225-4.658-11.28692a75.978,75.978,0,0,0-4.56942-6.341,1.00008,1.00008,0,0,0-.78984-.36907Z" fill="#68b1fc"/><path d="M44,20a10,10,0,0,1-11.99,9.8A10.035,10.035,0,0,0,40,20c0-3.5-2.37-7.73-4.66-11.29C34.11,6.79,32.88,5.1,32,3.95c.74-.99,1.22-1.58,1.22-1.58A1.03128,1.03128,0,0,1,33.98,2a.996.996,0,0,1,.79.37,75.33531,75.33531,0,0,1,4.57,6.34C41.63,12.27,44,16.5,44,20Z" fill="#539ffb"/><path id="path8692-2-0-6" d="M47.66956,34.91405,46.234,36.34961a4.99881,4.99881,0,0,1-4.2344,7.65429h-11a1.0001,1.0001,0,1,0,0,1.99219h11a6.98459,6.98459,0,0,0,5.66992-11.082Z" fill="#fdca99"/><path d="M25.70832,55.70852l-5.99625,5.99625a.99443.99443,0,0,1-1.40718.007l-2.82842-2.82842a.99444.99444,0,0,0,1.40718-.007l5.99625-5.99625a1.003,1.003,0,0,0,0-1.41422l2.82842,2.82843A1.003,1.003,0,0,1,25.70832,55.70852Z" fill="#539ffb"/></g></svg>